<svg xmlns="http://www.w3.org/2000/svg" xmlns:xlink="http://www.w3.org/1999/xlink" width="91" height="79" viewBox="0 0 91 79">
    <defs>
        <path id="a" d="M0 0h91v79H0z"/>
        <path id="c" d="M0 79h91V0H0z"/>
    </defs>
    <g fill="none" fill-rule="evenodd">
        <mask id="b" fill="#fff">
            <use xlink:href="#a"/>
        </mask>
        <path fill="#000" d="M45.5 60.19H3.794V56.43h83.412v3.762H45.5zm-34.125-7.524h30.331V41.38H11.375v11.286zM87.206 3.762v48.904H45.5V37.62H7.581v15.046H3.794V3.762h83.412zM34.958 75.238l2.266-11.27 16.546-.005 2.272 11.275H34.958zM89.106 0H1.894A1.888 1.888 0 0 0 0 1.88v60.191c0 1.04.85 1.88 1.894 1.88h31.464L31.09 75.239h-.758a1.89 1.89 0 0 0-1.894 1.882c0 1.038.85 1.88 1.894 1.88H60.67a1.888 1.888 0 0 0 1.894-1.88 1.89 1.89 0 0 0-1.894-1.882h-.761l-2.272-11.286h31.47A1.888 1.888 0 0 0 91 62.072V1.88C91 .842 90.15 0 89.106 0z" mask="url(#b)"/>
        <path fill="#000" d="M78.127 37H51.873C50.838 37 50 37.895 50 39s.838 2 1.873 2h26.254C79.16 41 80 40.105 80 39s-.84-2-1.873-2M20.897 22h49.206C71.151 22 72 21.105 72 20c0-1.104-.849-2-1.897-2H20.897C19.849 18 19 18.896 19 20c0 1.105.849 2 1.897 2"/>
        <mask id="d" fill="#fff">
            <use xlink:href="#c"/>
        </mask>
        <path fill="#000" d="M11.802 29.285h68.396v-18.57H11.802v18.57zM8 33h76V7H8v26zM78.127 45H51.873C50.838 45 50 45.895 50 47s.838 2 1.873 2h26.254C79.16 49 80 48.105 80 47s-.84-2-1.873-2" mask="url(#d)"/>
    </g>
</svg>
