<svg xmlns="http://www.w3.org/2000/svg" xmlns:xlink="http://www.w3.org/1999/xlink" width="77" height="78" viewBox="0 0 77 78">
    <defs>
        <path id="a" d="M0 .705h76.884V78H0z"/>
    </defs>
    <g fill="none" fill-rule="evenodd">
        <path fill="#000" d="M33.619 37.626l11.623-4.836-4.836 11.623-11.624 4.837 4.837-11.624zm9.1 10.181a2.016 2.016 0 0 0 1.088-1.088l7.037-16.928a2.015 2.015 0 0 0-2.636-2.636l-16.927 7.037a2.016 2.016 0 0 0-1.088 1.089l-7.037 16.927a2.015 2.015 0 0 0 2.636 2.636l16.927-7.037z"/>
        <path fill="#000" d="M13.142 43.482h4.652a2.037 2.037 0 0 0 0-4.073H13.15a23.328 23.328 0 0 1 5.36-12.955l3.258 3.259a2.04 2.04 0 0 0 2.883-2.884l-3.258-3.26a23.317 23.317 0 0 1 12.952-5.401v4.685a2.036 2.036 0 1 0 4.072 0V18.16c11.35.925 20.38 9.901 21.375 21.249H54.97a2.036 2.036 0 1 0 0 4.073h4.838a23.323 23.323 0 0 1-5.41 13.102l-3.429-3.43a2.038 2.038 0 0 0-2.883 0 2.04 2.04 0 0 0 0 2.884l3.429 3.43a23.314 23.314 0 0 1-13.098 5.378v-4.807a2.036 2.036 0 1 0-4.072 0v4.782c-11.304-1.026-20.237-10.026-21.18-21.339h-.024zm3.91-21.436c-10.738 10.743-10.736 28.16.005 38.9 10.741 10.74 28.153 10.739 38.891-.006 10.736-10.74 10.736-28.153 0-38.894-10.748-10.728-28.148-10.728-38.896 0z"/>
        <g>
            <mask id="b" fill="#fff">
                <use xlink:href="#a"/>
            </mask>
            <path fill="#000" d="M65.985 18.921a37.072 37.072 0 0 0-7.214-7.207c.072-3.908 3.292-7.017 7.19-6.943 3.898.072 7 3.3 6.927 7.207-.07 3.793-3.112 6.855-6.895 6.943h-.008zM36.756 73.83c-18.02 0-32.63-14.646-32.63-32.711 0-18.066 14.61-32.712 32.63-32.712 18.023 0 32.632 14.646 32.632 32.712-.022 18.057-14.618 32.689-32.632 32.71zM65.823.705a11.135 11.135 0 0 0-10.797 8.531C37.432-.888 14.982 5.203 4.882 22.84c-10.1 17.637-4.025 40.142 13.57 50.266C36.046 83.23 58.497 77.14 68.597 59.502a36.9 36.9 0 0 0-.1-36.835c5.949-1.51 9.55-7.57 8.044-13.533A11.118 11.118 0 0 0 65.855.729l-.032-.024z" mask="url(#b)"/>
        </g>
    </g>
</svg>
