<svg xmlns="http://www.w3.org/2000/svg" xmlns:xlink="http://www.w3.org/1999/xlink" width="62" height="85" viewBox="0 0 62 85">
    <defs>
        <path id="a" d="M0 0h61.371v85H0z"/>
    </defs>
    <g fill="none" fill-rule="evenodd">
        <g>
            <mask id="b" fill="#fff">
                <use xlink:href="#a"/>
            </mask>
            <path fill="#000" d="M57.148 80.884H4.133V33.016h53.105v47.868h-.09zM24.35 28.989c-.18-.626-.36-1.342-.36-2.058 0-3.667 2.966-6.62 6.65-6.62s6.649 2.953 6.649 6.62c0 .716-.09 1.432-.36 2.058H24.35zM7.728 24.873l3.055-.357c2.156-.269 4.043-1.7 4.942-3.848.898-2.058.539-4.384-.81-6.084l-1.976-2.416 2.875-2.863 2.427 1.968c1.707 1.343 4.043 1.7 6.2.806 2.066-.895 3.504-2.774 3.773-4.921l.36-3.042h4.043l.36 3.042c.27 2.147 1.707 4.026 3.774 4.92 2.156.895 4.492.538 6.2-.805l2.426-1.968 2.875 2.863-1.977 2.416c-1.347 1.7-1.707 4.026-.808 6.174.808 2.058 2.695 3.579 4.942 3.758l3.055.357v4.116h-12.31c.09-.626.18-1.342.18-2.058 0-5.905-4.853-10.737-10.693-10.737-5.841 0-10.783 4.832-10.783 10.737 0 .716.09 1.342.18 2.058H7.728v-4.116zm51.486 4.116h-1.617v-4.83c0-1.701-1.258-3.043-2.875-3.222l-3.864-.448c-.719-.09-1.258-.537-1.617-1.342-.27-.716-.18-1.431.27-1.968l2.425-3.042c.989-1.253.989-3.132-.27-4.294l-3.953-3.938c-1.168-1.163-3.055-1.253-4.313-.268l-2.965 2.416c-.54.448-1.258.536-2.067.178-.719-.268-1.168-.894-1.258-1.52l-.45-3.848C36.482 1.253 35.134 0 33.427 0h-5.66c-1.708 0-3.056 1.252-3.236 2.863l-.359 3.848c-.09.715-.54 1.252-1.348 1.61-.719.268-1.437.268-1.977-.268l-2.965-2.416a3.11 3.11 0 0 0-4.313.268L9.525 9.843c-1.168 1.162-1.258 3.04-.27 4.294l2.426 3.042c.45.537.54 1.252.18 2.058a1.957 1.957 0 0 1-1.528 1.252l-3.863.448c-1.618.09-2.786 1.52-2.786 3.131V28.9H2.067C.899 28.9 0 29.794 0 30.958v51.985C0 84.106.899 85 2.067 85h57.237c1.168 0 2.067-.895 2.067-2.058V30.958a2.154 2.154 0 0 0-2.157-1.969z" mask="url(#b)"/>
        </g>
        <path fill="#000" d="M44.5 49.133c1.264 0 2.348 1.067 2.348 2.311 0 1.245-1.084 2.312-2.348 2.312-1.263 0-2.347-1.067-2.347-2.312 0-1.244 1.084-2.31 2.347-2.31M42.424 57.4v15.556c0 1.155.902 2.044 2.076 2.044s2.076-.889 2.076-2.044V57.4c2.53-.889 4.424-3.2 4.424-5.956a6.227 6.227 0 0 0-4.424-5.955v-4.445c0-1.155-.902-2.044-2.076-2.044s-2.076.889-2.076 2.044v4.445c-2.528.889-4.424 3.2-4.424 5.955 0 2.756 1.896 5.067 4.424 5.956M30.5 60.229c1.264 0 2.347 1.06 2.347 2.3 0 1.238-1.083 2.299-2.347 2.299s-2.347-1.061-2.347-2.3c0-1.238 1.083-2.3 2.347-2.3m-2.076 8.315v4.423c0 1.15.902 2.034 2.076 2.034s2.076-.885 2.076-2.034v-4.423C35.104 67.658 37 65.359 37 62.617s-1.806-5.13-4.424-5.927V41.034c0-1.15-.902-2.034-2.076-2.034s-2.076.885-2.076 2.034v15.48C25.896 57.398 24 59.698 24 62.44c0 2.919 1.896 5.218 4.424 6.103M16.5 49.133c1.264 0 2.347 1.067 2.347 2.311 0 1.245-1.083 2.312-2.347 2.312s-2.347-1.067-2.347-2.312c0-1.244 1.083-2.31 2.347-2.31M14.424 57.4v15.556c0 1.155.902 2.044 2.076 2.044s2.076-.889 2.076-2.044V57.4C21.104 56.511 23 54.2 23 51.444a6.227 6.227 0 0 0-4.424-5.955v-4.445c0-1.155-.902-2.044-2.076-2.044s-2.076.889-2.076 2.044v4.445c-2.528.889-4.424 3.2-4.424 5.955 0 2.756 1.896 5.067 4.424 5.956"/>
    </g>
</svg>
